# Noesis .obj export.
#
mtllib unused.mtl
g
v  -4.110865 -7.999997 -29.002077
v  0.021872 -7.999999 -0.074275
v  -9.116088 -7.999997 -27.789234
v  1.216652 -8.000000 25.284563
v  4.626331 -8.000000 23.518982
v  21.268858 -7.999999 6.717769
v  21.393730 -7.999999 3.890785
v  -18.739426 -7.999999 9.125337
v  -19.321499 -7.999999 12.730816
v  8.428633 -7.999998 -24.980867
v  0.833127 -7.999997 -28.559441
v  5.125782 -7.999997 -27.098200
v  -12.481354 -7.999998 -24.875574
v  20.832176 -7.999999 1.170776
v  -21.219658 -7.999998 -11.248619
v  -21.394138 -7.999998 -6.657380
v  -14.226717 -8.000000 26.923040
v  -11.221058 -8.000000 29.088358
v  -8.798987 -8.000000 28.931704
v  13.748741 -8.000000 18.869436
v  11.475924 -8.000000 19.311483
v  12.989958 -7.999998 -20.991108
v  15.944820 -7.999998 -16.484486
v  -20.227240 -7.999998 -15.475877
v  -18.690306 -7.999998 -18.366051
v  -16.746786 -7.999998 -20.692974
v  -14.225144 -7.999998 -22.362453
v  -20.879398 -7.999999 -2.478394
v  -18.660503 -7.999999 2.872143
v  -17.929787 -8.000000 20.092287
v  -17.047714 -8.000000 24.009594
v  -19.283566 -7.999999 15.980835
v  -5.807628 -8.000000 27.800718
v  7.002500 -8.000000 22.629000
v  9.448938 -8.000000 20.615934
v  17.488220 -7.999999 16.351400
v  15.914839 -8.000000 17.778450
v  18.880653 -7.999999 11.795227
v  18.177135 -7.999999 14.163639
v  20.532862 -7.999999 9.217303
v  19.784277 -7.999999 -0.190346
v  18.112825 -7.999999 -1.535760
v  17.434786 -7.999999 -2.862335
v  17.457302 -7.999998 -6.810627
v  17.054956 -7.999998 -11.978846
v  -9.333871 -7.514155 -28.391371
v  -10.183947 0.528376 -30.066566
v  -4.331772 0.528376 -31.499077
v  -4.191712 -7.514561 -29.625666
v  4.773623 -7.514874 24.134045
v  5.531347 0.528374 25.853184
v  2.050001 0.528374 27.650492
v  1.290928 -7.514876 25.931948
v  22.025331 -7.514735 3.977724
v  23.900148 0.528375 3.857266
v  23.723989 0.528375 7.212690
v  21.872673 -7.514728 6.893205
v  -19.966732 -7.514798 13.070492
v  -21.842018 0.528375 12.957317
v  -21.257298 0.528375 9.211615
v  -19.385483 -7.514857 9.372493
v  5.395584 -7.514719 -27.661943
v  6.206605 0.528376 -29.356548
v  9.791941 0.528376 -27.084370
v  8.669693 -7.514850 -25.577677
v  0.872492 -7.514722 -29.189632
v  1.256529 0.528376 -31.028641
v  -12.814251 -7.514688 -25.439383
v  -14.204657 0.528376 -26.702784
v  21.508982 -7.514345 1.159057
v  23.250813 0.528375 0.455418
v  -22.022533 -7.514838 -6.809142
v  -23.900150 0.528375 -6.745024
v  -23.671585 0.528376 -11.779631
v  -21.811749 -7.514792 -11.514070
v  -11.446966 -7.513390 29.700092
v  -11.987181 0.528374 31.499081
v  -15.761271 0.528374 28.901752
v  -14.545042 -7.514841 27.469851
v  -8.942311 -7.514594 29.599655
v  -8.576893 0.528374 31.442421
v  14.098131 -7.514643 19.410791
v  14.719006 0.528374 21.183891
v  12.482695 0.528374 21.610773
v  11.782995 -7.514436 19.867331
v  14.765974 0.528376 -22.763454
v  13.358435 -7.514673 -21.519178
v  18.149647 0.528376 -17.695047
v  16.435673 -7.514524 -16.925926
v  -20.758270 -7.514690 -15.837339
v  -22.511105 0.528376 -16.513348
v  -20.707554 0.528376 -19.849813
v  -19.155514 -7.514781 -18.791199
v  -18.400318 0.528376 -22.574795
v  -17.146725 -7.514647 -21.175554
v  -14.590244 -7.514437 -22.887157
v  -15.906599 0.528376 -24.227451
v  -21.533907 -7.514657 -2.510017
v  -23.353687 0.528375 -2.043345
v  -19.284214 -7.514350 2.974240
v  -21.130127 0.528375 3.323086
v  -17.486341 -7.513860 24.538399
v  -19.124496 0.528374 25.457682
v  -20.245920 0.528374 21.086388
v  -18.440105 -7.514900 20.568079
v  -21.697399 0.528374 16.709599
v  -19.849045 -7.514632 16.373529
v  1.290928 -7.514876 25.931948
v  2.050001 0.528374 27.650492
v  -5.261036 0.528374 30.259090
v  -5.886981 -7.514927 28.487700
v  7.215394 -7.514541 23.230961
v  8.147375 0.528374 24.862120
v  9.731867 -7.514880 21.179117
v  10.833168 0.528374 22.701197
v  17.972950 -7.513965 16.778124
v  19.545067 0.528374 17.806316
v  17.388145 0.528374 19.804049
v  16.321388 -7.514705 18.257614
v  19.422438 -7.514648 12.116872
v  21.132895 0.528375 12.893862
v  20.508018 0.528375 15.087491
v  18.713964 -7.514925 14.529817
v  22.812225 0.528375 10.255932
v  21.103109 -7.514655 9.475996
v  20.555061 -7.514598 -0.276138
v  21.942848 0.528375 -1.542382
v  18.831636 -7.514457 -1.665475
v  20.256819 0.528375 -2.889422
v  18.066309 -7.513955 -2.976303
v  19.880013 0.528375 -3.465380
v  18.071459 -7.514902 -7.006107
v  19.948582 0.528375 -7.083706
v  19.481796 0.528376 -12.631462
v  17.629568 -7.514823 -12.317160
v  -9.333871 -7.514155 -28.391371
v  -4.191712 -7.514561 -29.625666
v  4.773623 -7.514874 24.134045
v  1.290928 -7.514876 25.931948
v  22.025331 -7.514735 3.977724
v  21.872673 -7.514728 6.893205
v  -19.966732 -7.514798 13.070492
v  -19.385483 -7.514857 9.372493
v  5.395584 -7.514719 -27.661943
v  8.669693 -7.514850 -25.577677
v  0.872492 -7.514722 -29.189632
v  -12.814251 -7.514688 -25.439383
v  21.508982 -7.514345 1.159057
v  -22.022533 -7.514838 -6.809142
v  -21.811749 -7.514792 -11.514070
v  -11.446966 -7.513390 29.700092
v  -14.545042 -7.514841 27.469851
v  -8.942311 -7.514594 29.599655
v  14.098131 -7.514643 19.410791
v  11.782995 -7.514436 19.867331
v  13.358435 -7.514673 -21.519178
v  16.435673 -7.514524 -16.925926
v  -20.758270 -7.514690 -15.837339
v  -19.155514 -7.514781 -18.791199
v  -17.146725 -7.514647 -21.175554
v  -14.590244 -7.514437 -22.887157
v  -21.533907 -7.514657 -2.510017
v  -19.284214 -7.514350 2.974240
v  -17.486341 -7.513860 24.538399
v  -18.440105 -7.514900 20.568079
v  -19.849045 -7.514632 16.373529
v  -5.886981 -7.514927 28.487700
v  7.215394 -7.514541 23.230961
v  9.731867 -7.514880 21.179117
v  17.972950 -7.513965 16.778124
v  16.321388 -7.514705 18.257614
v  19.422438 -7.514648 12.116872
v  18.713964 -7.514925 14.529817
v  21.103109 -7.514655 9.475996
v  20.555061 -7.514598 -0.276138
v  18.831636 -7.514457 -1.665475
v  18.066309 -7.513955 -2.976303
v  18.071459 -7.514902 -7.006107
v  17.629568 -7.514823 -12.317160

vt  0.569064 -0.955706 0.000000
vt  0.633055 -0.507887 0.000000
vt  0.491698 -0.936944 0.000000
vt  0.651511 -0.115208 0.000000
vt  0.704357 -0.142486 0.000000
vt  0.962106 -0.402765 0.000000
vt  0.963840 -0.446476 0.000000
vt  0.342148 -0.365405 0.000000
vt  0.334023 -0.309435 0.000000
vt  0.763177 -0.893503 0.000000
vt  0.645561 -0.948876 0.000000
vt  0.711990 -0.926224 0.000000
vt  0.439618 -0.891982 0.000000
vt  0.955185 -0.488467 0.000000
vt  0.304217 -0.681002 0.000000
vt  0.301860 -0.609921 0.000000
vt  0.412510 -0.089788 0.000000
vt  0.458963 -0.056374 0.000000
vt  0.496276 -0.059015 0.000000
vt  0.845638 -0.214993 0.000000
vt  0.810605 -0.207282 0.000000
vt  0.833785 -0.831735 0.000000
vt  0.879492 -0.762037 0.000000
vt  0.319573 -0.746370 0.000000
vt  0.343324 -0.791067 0.000000
vt  0.373373 -0.827040 0.000000
vt  0.412376 -0.853118 0.000000
vt  0.309029 -0.545222 0.000000
vt  0.343307 -0.462343 0.000000
vt  0.355164 -0.195491 0.000000
vt  0.368970 -0.134901 0.000000
vt  0.334399 -0.259175 0.000000
vt  0.542693 -0.076288 0.000000
vt  0.741064 -0.156338 0.000000
vt  0.779020 -0.187323 0.000000
vt  0.903378 -0.253629 0.000000
vt  0.879182 -0.231686 0.000000
vt  0.925210 -0.324093 0.000000
vt  0.914163 -0.287347 0.000000
vt  0.950689 -0.364157 0.000000
vt  0.939112 -0.509431 0.000000
vt  0.913289 -0.530385 0.000000
vt  0.902695 -0.551163 0.000000
vt  0.902986 -0.612413 0.000000
vt  0.896728 -0.692378 0.000000
vt  0.216099 -0.466302 0.000000
vt  0.003810 -0.452617 0.000000
vt  0.003840 -0.557240 0.000000
vt  0.216099 -0.566071 0.000000
vt  0.216098 -1.932103 0.000000
vt  0.003850 -1.930072 0.000000
vt  0.003828 -1.987792 0.000000
vt  0.216098 -1.993175 0.000000
vt  0.216098 -1.456133 0.000000
vt  0.003829 -1.443127 0.000000
vt  0.003836 -1.500428 0.000000
vt  0.216098 -1.507995 0.000000
vt  0.216099 0.428190 0.000000
vt  0.003886 0.424840 0.000000
vt  0.003845 0.354076 0.000000
vt  0.216099 0.352930 0.000000
vt  0.216098 -0.752791 0.000000
vt  0.003862 -0.746864 0.000000
vt  0.003859 -0.821337 0.000000
vt  0.216098 -0.826212 0.000000
vt  0.216099 -0.662354 0.000000
vt  0.003855 -0.655198 0.000000
vt  0.216099 -0.381222 0.000000
vt  0.003811 -0.363342 0.000000
vt  0.216098 -1.404333 0.000000
vt  0.003806 -1.382902 0.000000
vt  0.216099 0.034011 0.000000
vt  0.003881 0.021903 0.000000
vt  0.003829 -0.061397 0.000000
vt  0.216099 -0.055269 0.000000
vt  0.216099 0.813987 0.000000
vt  0.003767 0.805146 0.000000
vt  0.003813 0.723571 0.000000
vt  0.216099 0.742282 0.000000
vt  0.216099 0.860163 0.000000
vt  0.003775 0.865808 0.000000
vt  0.216098 -1.766813 0.000000
vt  0.003844 -1.778879 0.000000
vt  0.003818 -1.809408 0.000000
vt  0.216098 -1.801763 0.000000
vt  0.003864 -0.937217 0.000000
vt  0.216098 -0.942996 0.000000
vt  0.003869 -1.044257 0.000000
vt  0.216098 -1.046364 0.000000
vt  0.216099 -0.139567 0.000000
vt  0.003822 -0.142363 0.000000
vt  0.003829 -0.205545 0.000000
vt  0.216099 -0.203967 0.000000
vt  0.003819 -0.265683 0.000000
vt  0.216099 -0.263830 0.000000
vt  0.216099 -0.323074 0.000000
vt  0.003856 -0.314572 0.000000
vt  0.216099 0.116749 0.000000
vt  0.003770 0.132080 0.000000
vt  0.216099 0.228775 0.000000
vt  0.003788 0.233216 0.000000
vt  0.216099 0.662427 0.000000
vt  0.003830 0.639704 0.000000
vt  0.003839 0.563508 0.000000
vt  0.216099 0.582408 0.000000
vt  0.003868 0.486336 0.000000
vt  0.216099 0.495212 0.000000
vt  0.216676 1.057159 0.000000
vt  0.004465 1.058089 0.000000
vt  0.003876 0.918323 0.000000
vt  0.216099 0.919042 0.000000
vt  0.216098 -1.892410 0.000000
vt  0.003818 -1.890276 0.000000
vt  0.216098 -1.840197 0.000000
vt  0.003838 -1.837976 0.000000
vt  0.216098 -1.691934 0.000000
vt  0.003801 -1.687944 0.000000
vt  0.003832 -1.734125 0.000000
vt  0.216098 -1.727797 0.000000
vt  0.216098 -1.607562 0.000000
vt  0.003840 -1.602669 0.000000
vt  0.003829 -1.639844 0.000000
vt  0.216098 -1.651115 0.000000
vt  0.003835 -1.553642 0.000000
vt  0.216098 -1.554790 0.000000
vt  0.216098 -1.372753 0.000000
vt  0.003810 -1.340208 0.000000
vt  0.216098 -1.331676 0.000000
vt  0.003840 -1.302419 0.000000
vt  0.216098 -1.303916 0.000000
vt  0.003787 -1.290782 0.000000
vt  0.216098 -1.231154 0.000000
vt  0.003839 -1.230740 0.000000
vt  0.003863 -1.135209 0.000000
vt  0.216098 -1.134048 0.000000
vt  0.487236 -0.948462 0.000000
vt  0.567603 -0.967866 0.000000
vt  0.707730 -0.130564 0.000000
vt  0.653674 -0.102832 0.000000
vt  0.976102 -0.445400 0.000000
vt  0.974054 -0.399685 0.000000
vt  0.321877 -0.304079 0.000000
vt  0.329374 -0.361560 0.000000
vt  0.717251 -0.937248 0.000000
vt  0.768444 -0.904806 0.000000
vt  0.646682 -0.961122 0.000000
vt  0.432707 -0.902501 0.000000
vt  0.967950 -0.489637 0.000000
vt  0.289901 -0.612297 0.000000
vt  0.292451 -0.685453 0.000000
vt  0.454908 -0.044495 0.000000
vt  0.405925 -0.079328 0.000000
vt  0.494524 -0.046318 0.000000
vt  0.852114 -0.204652 0.000000
vt  0.816653 -0.196090 0.000000
vt  0.841410 -0.841569 0.000000
vt  0.889381 -0.769908 0.000000
vt  0.308975 -0.752865 0.000000
vt  0.333992 -0.799067 0.000000
vt  0.365424 -0.836303 0.000000
vt  0.404856 -0.863139 0.000000
vt  0.296169 -0.545260 0.000000
vt  0.330975 -0.460314 0.000000
vt  0.360062 -0.125533 0.000000
vt  0.344747 -0.187363 0.000000
vt  0.323165 -0.252708 0.000000
vt  0.542253 -0.063196 0.000000
vt  0.745589 -0.144844 0.000000
vt  0.784794 -0.176410 0.000000
vt  0.912894 -0.245668 0.000000
vt  0.886955 -0.222215 0.000000
vt  0.936027 -0.318045 0.000000
vt  0.924881 -0.280771 0.000000
vt  0.961855 -0.359205 0.000000
vt  0.952961 -0.512369 0.000000
vt  0.926423 -0.533938 0.000000
vt  0.914907 -0.553599 0.000000
vt  0.915054 -0.615648 0.000000
vt  0.908141 -0.698104 0.000000

vn  -0.024960 -0.935865 -0.351474
vn  -0.000000 -1.000000 -0.000000
vn  -0.172238 -0.931506 -0.320359
vn  0.138001 -0.941183 0.308433
vn  0.125816 -0.949439 0.287638
vn  0.342465 -0.937930 0.054826
vn  0.347414 -0.937171 -0.031838
vn  -0.309282 -0.950710 -0.022269
vn  -0.343937 -0.938381 -0.033887
vn  0.205555 -0.940850 -0.269347
vn  0.074532 -0.938216 -0.337927
vn  0.149724 -0.938295 -0.311745
vn  -0.263916 -0.936979 -0.228949
vn  0.332285 -0.927284 -0.172426
vn  -0.341701 -0.938866 -0.042078
vn  -0.340904 -0.939933 0.017630
vn  -0.222220 -0.940490 0.257093
vn  -0.097345 -0.926873 0.362533
vn  0.085262 -0.933997 0.346958
vn  0.107315 -0.936819 0.332945
vn  0.109310 -0.958040 0.264974
vn  0.266095 -0.937183 -0.225569
vn  0.329006 -0.934780 -0.133941
vn  -0.328728 -0.936967 -0.118452
vn  -0.286856 -0.938883 -0.190294
vn  -0.234453 -0.936926 -0.259232
vn  -0.197225 -0.958156 -0.207461
vn  -0.337708 -0.936323 0.096194
vn  -0.279084 -0.958826 0.052585
vn  -0.302424 -0.949061 0.088451
vn  -0.337947 -0.927725 0.158485
vn  -0.350041 -0.935429 0.049435
vn  0.110655 -0.945497 0.306253
vn  0.181785 -0.935232 0.303801
vn  0.183744 -0.949238 0.255314
vn  0.314058 -0.929948 0.191217
vn  0.196100 -0.937664 0.286932
vn  0.269176 -0.954933 0.125087
vn  0.313462 -0.944629 0.097042
vn  0.317785 -0.937082 0.144536
vn  0.251176 -0.932184 -0.260661
vn  0.221147 -0.961540 -0.162894
vn  0.261703 -0.962953 -0.065067
vn  0.332972 -0.942876 -0.010731
vn  0.337675 -0.939949 -0.049716
vn  -0.441304 -0.228407 -0.867803
vn  -0.440395 -0.228678 -0.868193
vn  -0.075099 -0.226580 -0.971093
vn  -0.073183 -0.227839 -0.970945
vn  0.392994 -0.227458 0.890965
vn  0.395933 -0.226505 0.889906
vn  0.387900 -0.227447 0.893197
vn  0.387615 -0.227603 0.893281
vn  0.971773 -0.227434 -0.062700
vn  0.971812 -0.226491 -0.065449
vn  0.959459 -0.227472 0.166419
vn  0.959613 -0.227242 0.165843
vn  -0.971998 -0.227621 -0.058381
vn  -0.972218 -0.227037 -0.056977
vn  -0.970025 -0.227290 -0.085966
vn  -0.970380 -0.226275 -0.084626
vn  0.420009 -0.227801 -0.878464
vn  0.419457 -0.227461 -0.878816
vn  0.581848 -0.227130 -0.780938
vn  0.582038 -0.227071 -0.780814
vn  0.199003 -0.227448 -0.953239
vn  0.198451 -0.227093 -0.953439
vn  -0.720057 -0.226142 -0.656032
vn  -0.720009 -0.226679 -0.655899
vn  0.902308 -0.228579 -0.365503
vn  0.902533 -0.228057 -0.365273
vn  -0.973249 -0.227342 0.033199
vn  -0.973301 -0.227019 0.033862
vn  -0.963855 -0.227563 -0.138561
vn  -0.964028 -0.227197 -0.137956
vn  -0.276579 -0.231439 0.932706
vn  -0.279168 -0.230302 0.932216
vn  -0.630010 -0.224094 0.743552
vn  -0.632258 -0.224962 0.741378
vn  0.185474 -0.223958 0.956787
vn  0.175049 -0.228326 0.957719
vn  0.321163 -0.226789 0.919468
vn  0.318368 -0.227613 0.920236
vn  0.367515 -0.228141 0.901601
vn  0.363726 -0.228929 0.902937
vn  0.730437 -0.227828 -0.643861
vn  0.729937 -0.227114 -0.644679
vn  0.887805 -0.227777 -0.399900
vn  0.887971 -0.228190 -0.399296
vn  -0.908587 -0.227705 -0.350170
vn  -0.908617 -0.227699 -0.350098
vn  -0.804158 -0.227225 -0.549271
vn  -0.804348 -0.227080 -0.549053
vn  -0.647227 -0.227793 -0.727467
vn  -0.649328 -0.226819 -0.725897
vn  -0.682649 -0.228215 -0.694197
vn  -0.682963 -0.228108 -0.693923
vn  -0.943008 -0.227919 0.242464
vn  -0.942827 -0.226724 0.244282
vn  -0.956576 -0.228183 0.181370
vn  -0.956553 -0.228708 0.180830
vn  -0.847377 -0.230271 0.478464
vn  -0.847398 -0.229782 0.478662
vn  -0.935499 -0.224909 0.272502
vn  -0.936202 -0.226770 0.268515
vn  -0.957908 -0.228126 0.174270
vn  -0.957908 -0.227915 0.174549
vn  0.387615 -0.227603 0.893281
vn  0.387900 -0.227447 0.893197
vn  0.327140 -0.227302 0.917231
vn  0.329165 -0.226516 0.916701
vn  0.483732 -0.228470 0.844869
vn  0.484223 -0.228383 0.844612
vn  0.570459 -0.226493 0.789480
vn  0.573511 -0.225728 0.787485
vn  0.815457 -0.229719 0.531281
vn  0.813991 -0.229964 0.533419
vn  0.558579 -0.225686 0.798157
vn  0.553376 -0.227271 0.801326
vn  0.886775 -0.228334 0.401864
vn  0.888316 -0.227473 0.398937
vn  0.927681 -0.226502 0.296824
vn  0.929663 -0.224594 0.292036
vn  0.885573 -0.227641 0.404894
vn  0.885878 -0.227434 0.404345
vn  0.720025 -0.226665 -0.655886
vn  0.720592 -0.226986 -0.655152
vn  0.737908 -0.227913 -0.635253
vn  0.722652 -0.223415 -0.654110
vn  0.939384 -0.229417 -0.254807
vn  0.934193 -0.230443 -0.272359
vn  0.973695 -0.224747 -0.037508
vn  0.973322 -0.227266 -0.031541
vn  0.959917 -0.226767 -0.164730
vn  0.959966 -0.227640 -0.163235
vn  -0.269232 -0.796043 -0.542061
vn  -0.048656 -0.791469 -0.609270
vn  0.252269 -0.788644 0.560714
vn  0.238748 -0.790184 0.564454
vn  0.608737 -0.792495 -0.037298
vn  0.602724 -0.790873 0.106037
vn  -0.614601 -0.788305 -0.028978
vn  -0.615676 -0.785301 -0.065152
vn  0.265423 -0.789556 -0.553310
vn  0.363311 -0.788980 -0.495496
vn  0.121520 -0.789666 -0.601382
vn  -0.444674 -0.791813 -0.418685
vn  0.557531 -0.801724 -0.215401
vn  -0.612156 -0.790560 0.016737
vn  -0.604791 -0.790955 -0.092833
vn  -0.171376 -0.804003 0.569394
vn  -0.394440 -0.789152 0.470804
vn  0.101955 -0.795567 0.597225
vn  0.208660 -0.789676 0.576951
vn  0.219537 -0.791310 0.570641
vn  0.454058 -0.790401 -0.411215
vn  0.552298 -0.791873 -0.260582
vn  -0.567480 -0.791827 -0.225782
vn  -0.504676 -0.790516 -0.346968
vn  -0.407765 -0.790973 -0.456169
vn  -0.435973 -0.790731 -0.429734
vn  -0.593477 -0.792365 0.141215
vn  -0.597883 -0.793173 0.115810
vn  -0.514523 -0.798263 0.313117
vn  -0.600302 -0.783593 0.160063
vn  -0.596241 -0.793124 0.124300
vn  0.209636 -0.787359 0.579757
vn  0.296424 -0.792455 0.533055
vn  0.363473 -0.788576 0.496019
vn  0.500379 -0.798132 0.335568
vn  0.351842 -0.790926 0.500643
vn  0.560312 -0.789829 0.249441
vn  0.586793 -0.788269 0.185219
vn  0.557186 -0.790778 0.253406
vn  0.461087 -0.800154 -0.383604
vn  0.457428 -0.778587 -0.429607
vn  0.583268 -0.795345 -0.164997
vn  0.615199 -0.787915 -0.026833
vn  0.605425 -0.788489 -0.108380

g Mesh_0000.rip
usemtl Tex_0000_0.dds
f  1/1/1 2/2/2 3/3/3
f  4/4/4 2/2/2 5/5/5
f  6/6/6 2/2/2 7/7/7
f  8/8/8 2/2/2 9/9/9
f  10/10/10 2/2/2 11/11/11
f  11/11/11 12/12/12 10/10/10
f  11/11/11 2/2/2 1/1/1
f  2/2/2 13/13/13 3/3/3
f  7/7/7 2/2/2 14/14/14
f  15/15/15 2/2/2 16/16/16
f  17/17/17 2/2/2 18/18/18
f  18/18/18 2/2/2 19/19/19
f  2/2/2 20/20/20 21/21/21
f  22/22/22 2/2/2 10/10/10
f  23/23/23 2/2/2 22/22/22
f  2/2/2 24/24/24 25/25/25
f  2/2/2 25/25/25 26/26/26
f  2/2/2 15/15/15 24/24/24
f  13/13/13 2/2/2 27/27/27
f  2/2/2 26/26/26 27/27/27
f  16/16/16 2/2/2 28/28/28
f  28/28/28 2/2/2 29/29/29
f  29/29/29 2/2/2 8/8/8
f  30/30/30 2/2/2 31/31/31
f  32/32/32 2/2/2 30/30/30
f  9/9/9 2/2/2 32/32/32
f  31/31/31 2/2/2 17/17/17
f  2/2/2 4/4/4 33/33/33
f  2/2/2 33/33/33 19/19/19
f  2/2/2 34/34/34 5/5/5
f  2/2/2 35/35/35 34/34/34
f  2/2/2 21/21/21 35/35/35
f  2/2/2 36/36/36 37/37/37
f  2/2/2 37/37/37 20/20/20
f  2/2/2 38/38/38 39/39/39
f  2/2/2 39/39/39 36/36/36
f  2/2/2 6/6/6 40/40/40
f  2/2/2 40/40/40 38/38/38
f  2/2/2 41/41/41 14/14/14
f  2/2/2 42/42/42 41/41/41
f  2/2/2 43/43/43 42/42/42
f  2/2/2 44/44/44 43/43/43
f  2/2/2 23/23/23 45/45/45
f  2/2/2 45/45/45 44/44/44
f  46/46/46 47/47/47 48/48/48
f  48/48/48 49/49/49 46/46/46
f  50/50/50 51/51/51 52/52/52
f  52/52/52 53/53/53 50/50/50
f  54/54/54 55/55/55 56/56/56
f  56/56/56 57/57/57 54/54/54
f  58/58/58 59/59/59 60/60/60
f  60/60/60 61/61/61 58/58/58
f  62/62/62 63/63/63 64/64/64
f  64/64/64 65/65/65 62/62/62
f  66/66/66 67/67/67 63/63/63
f  63/63/63 62/62/62 66/66/66
f  49/49/49 48/48/48 67/67/67
f  67/67/67 66/66/66 49/49/49
f  68/68/68 69/69/69 47/47/47
f  47/47/47 46/46/46 68/68/68
f  70/70/70 71/71/71 55/55/55
f  55/55/55 54/54/54 70/70/70
f  72/72/72 73/73/73 74/74/74
f  74/74/74 75/75/75 72/72/72
f  76/76/76 77/77/77 78/78/78
f  78/78/78 79/79/79 76/76/76
f  80/80/80 81/81/81 77/77/77
f  77/77/77 76/76/76 80/80/80
f  82/82/82 83/83/83 84/84/84
f  84/84/84 85/85/85 82/82/82
f  65/65/65 64/64/64 86/86/86
f  86/86/86 87/87/87 65/65/65
f  87/87/87 86/86/86 88/88/88
f  88/88/88 89/89/89 87/87/87
f  90/90/90 91/91/91 92/92/92
f  92/92/92 93/93/93 90/90/90
f  93/93/93 92/92/92 94/94/94
f  94/94/94 95/95/95 93/93/93
f  75/75/75 74/74/74 91/91/91
f  91/91/91 90/90/90 75/75/75
f  96/96/96 97/97/97 69/69/69
f  69/69/69 68/68/68 96/96/96
f  95/95/95 94/94/94 97/97/97
f  97/97/97 96/96/96 95/95/95
f  98/98/98 99/99/99 73/73/73
f  73/73/73 72/72/72 98/98/98
f  100/100/100 101/101/101 99/99/99
f  99/99/99 98/98/98 100/100/100
f  61/61/61 60/60/60 101/101/101
f  101/101/101 100/100/100 61/61/61
f  102/102/102 103/103/103 104/104/104
f  104/104/104 105/105/105 102/102/102
f  105/105/105 104/104/104 106/106/106
f  106/106/106 107/107/107 105/105/105
f  107/107/107 106/106/106 59/59/59
f  59/59/59 58/58/58 107/107/107
f  79/79/79 78/78/78 103/103/103
f  103/103/103 102/102/102 79/79/79
f  108/108/108 109/109/109 110/110/110
f  110/110/110 111/111/111 108/108/108
f  111/111/111 110/110/110 81/81/81
f  81/81/81 80/80/80 111/111/111
f  112/112/112 113/113/113 51/51/51
f  51/51/51 50/50/50 112/112/112
f  114/114/114 115/115/115 113/113/113
f  113/113/113 112/112/112 114/114/114
f  85/85/85 84/84/84 115/115/115
f  115/115/115 114/114/114 85/85/85
f  116/116/116 117/117/117 118/118/118
f  118/118/118 119/119/119 116/116/116
f  119/119/119 118/118/118 83/83/83
f  83/83/83 82/82/82 119/119/119
f  120/120/120 121/121/121 122/122/122
f  122/122/122 123/123/123 120/120/120
f  123/123/123 122/122/122 117/117/117
f  117/117/117 116/116/116 123/123/123
f  57/57/57 56/56/56 124/124/124
f  124/124/124 125/125/125 57/57/57
f  125/125/125 124/124/124 121/121/121
f  121/121/121 120/120/120 125/125/125
f  126/126/126 127/127/127 71/71/71
f  71/71/71 70/70/70 126/126/126
f  128/128/128 129/129/129 127/127/127
f  127/127/127 126/126/126 128/128/128
f  130/130/130 131/131/131 129/129/129
f  129/129/129 128/128/128 130/130/130
f  132/132/132 133/133/133 131/131/131
f  131/131/131 130/130/130 132/132/132
f  89/89/89 88/88/88 134/134/134
f  134/134/134 135/135/135 89/89/89
f  135/135/135 134/134/134 133/133/133
f  133/133/133 132/132/132 135/135/135
f  3/3/3 136/136/136 137/137/137
f  137/137/137 1/1/1 3/3/3
f  5/5/5 138/138/138 139/139/139
f  139/139/139 4/4/4 5/5/5
f  7/7/7 140/140/140 141/141/141
f  141/141/141 6/6/6 7/7/7
f  9/9/9 142/142/142 143/143/143
f  143/143/143 8/8/8 9/9/9
f  12/12/12 144/144/144 145/145/145
f  145/145/145 10/10/10 12/12/12
f  11/11/11 146/146/146 144/144/144
f  144/144/144 12/12/12 11/11/11
f  1/1/1 137/137/137 146/146/146
f  146/146/146 11/11/11 1/1/1
f  13/13/13 147/147/147 136/136/136
f  136/136/136 3/3/3 13/13/13
f  14/14/14 148/148/148 140/140/140
f  140/140/140 7/7/7 14/14/14
f  16/16/16 149/149/149 150/150/150
f  150/150/150 15/15/15 16/16/16
f  18/18/18 151/151/151 152/152/152
f  152/152/152 17/17/17 18/18/18
f  19/19/19 153/153/153 151/151/151
f  151/151/151 18/18/18 19/19/19
f  20/20/20 154/154/154 155/155/155
f  155/155/155 21/21/21 20/20/20
f  10/10/10 145/145/145 156/156/156
f  156/156/156 22/22/22 10/10/10
f  22/22/22 156/156/156 157/157/157
f  157/157/157 23/23/23 22/22/22
f  24/24/24 158/158/158 159/159/159
f  159/159/159 25/25/25 24/24/24
f  25/25/25 159/159/159 160/160/160
f  160/160/160 26/26/26 25/25/25
f  15/15/15 150/150/150 158/158/158
f  158/158/158 24/24/24 15/15/15
f  27/27/27 161/161/161 147/147/147
f  147/147/147 13/13/13 27/27/27
f  26/26/26 160/160/160 161/161/161
f  161/161/161 27/27/27 26/26/26
f  28/28/28 162/162/162 149/149/149
f  149/149/149 16/16/16 28/28/28
f  29/29/29 163/163/163 162/162/162
f  162/162/162 28/28/28 29/29/29
f  8/8/8 143/143/143 163/163/163
f  163/163/163 29/29/29 8/8/8
f  31/31/31 164/164/164 165/165/165
f  165/165/165 30/30/30 31/31/31
f  30/30/30 165/165/165 166/166/166
f  166/166/166 32/32/32 30/30/30
f  32/32/32 166/166/166 142/142/142
f  142/142/142 9/9/9 32/32/32
f  17/17/17 152/152/152 164/164/164
f  164/164/164 31/31/31 17/17/17
f  33/33/33 167/167/167 153/153/153
f  153/153/153 19/19/19 33/33/33
f  4/4/4 139/139/139 167/167/167
f  167/167/167 33/33/33 4/4/4
f  34/34/34 168/168/168 138/138/138
f  138/138/138 5/5/5 34/34/34
f  35/35/35 169/169/169 168/168/168
f  168/168/168 34/34/34 35/35/35
f  21/21/21 155/155/155 169/169/169
f  169/169/169 35/35/35 21/21/21
f  36/36/36 170/170/170 171/171/171
f  171/171/171 37/37/37 36/36/36
f  37/37/37 171/171/171 154/154/154
f  154/154/154 20/20/20 37/37/37
f  38/38/38 172/172/172 173/173/173
f  173/173/173 39/39/39 38/38/38
f  39/39/39 173/173/173 170/170/170
f  170/170/170 36/36/36 39/39/39
f  6/6/6 141/141/141 174/174/174
f  174/174/174 40/40/40 6/6/6
f  40/40/40 174/174/174 172/172/172
f  172/172/172 38/38/38 40/40/40
f  41/41/41 175/175/175 148/148/148
f  148/148/148 14/14/14 41/41/41
f  42/42/42 176/176/176 175/175/175
f  175/175/175 41/41/41 42/42/42
f  43/43/43 177/177/177 176/176/176
f  176/176/176 42/42/42 43/43/43
f  44/44/44 178/178/178 177/177/177
f  177/177/177 43/43/43 44/44/44
f  23/23/23 157/157/157 179/179/179
f  179/179/179 45/45/45 23/23/23
f  45/45/45 179/179/179 178/178/178
f  178/178/178 44/44/44 45/45/45

g
