# Noesis .obj export.
#
mtllib unused.mtl
g
v  -179.917542 -193.907059 -73.818756
v  -177.401978 -193.055115 -50.667366
v  -192.721375 -172.639481 -51.008286
v  -195.466858 -173.869278 -74.126656
v  -183.148132 -168.197021 -119.337677
v  -168.982300 -189.541550 -119.383728
v  -175.114014 -191.470810 -96.634529
v  -190.276794 -171.002441 -96.852661
v  -174.803894 -193.118729 -27.385256
v  -161.601868 -213.296356 -50.291801
v  -159.051086 -213.656631 -27.005926
v  -146.731079 -233.853882 -73.138672
v  -145.486267 -233.747772 -49.938881
v  -163.692444 -213.605255 -73.470711
v  -207.372498 -151.922302 -51.306019
v  -210.537292 -153.933319 -74.349335
v  -154.962769 -211.211624 -119.444405
v  -140.923157 -233.533218 -119.449150
v  -144.714417 -233.195450 -96.288994
v  -160.077515 -212.218582 -96.483948
v  -205.207336 -150.533813 -97.001060
v  -197.986145 -147.356262 -119.432030
v  -205.183533 -151.849655 -28.009132
v  -190.292542 -172.665405 -27.720064
v  -142.851318 -234.624466 -26.657892
v  -129.659851 -254.221420 -72.901276
v  -129.386230 -254.380905 -49.683041
v  -126.715149 -255.999969 -119.337784
v  -129.386230 -254.380905 -96.119553
v  -126.715149 -255.999969 -26.464708
v  -222.935852 -132.087830 -51.405510
v  -225.437683 -134.064438 -74.536804
v  -220.525269 -130.522400 -97.284607
v  -212.553345 -126.542419 -119.495201
v  -220.767273 -131.808350 -28.107655

vt  0.251625 -0.498497 0.000000
vt  0.134218 -0.498497 0.000000
vt  0.134218 -0.656750 0.000000
vt  0.251625 -0.656750 0.000000
vt  0.486422 -0.656750 0.000000
vt  0.486422 -0.498497 0.000000
vt  0.369032 -0.498497 0.000000
vt  0.369032 -0.656750 0.000000
vt  0.016811 -0.498497 0.000000
vt  0.134218 -0.340244 0.000000
vt  0.016811 -0.340244 0.000000
vt  0.251625 -0.181991 0.000000
vt  0.134218 -0.181991 0.000000
vt  0.251625 -0.340244 0.000000
vt  0.134218 -0.815003 0.000000
vt  0.251625 -0.815003 0.000000
vt  0.486422 -0.340244 0.000000
vt  0.486422 -0.181991 0.000000
vt  0.369032 -0.181991 0.000000
vt  0.369032 -0.340244 0.000000
vt  0.369032 -0.815003 0.000000
vt  0.486422 -0.815003 0.000000
vt  0.016811 -0.815003 0.000000
vt  0.016811 -0.656750 0.000000
vt  0.016811 -0.181991 0.000000
vt  0.251625 -0.023738 0.000000
vt  0.134218 -0.023738 0.000000
vt  0.486422 -0.023738 0.000000
vt  0.369032 -0.023738 0.000000
vt  0.016811 -0.023738 0.000000
vt  0.134218 -0.973255 0.000000
vt  0.251625 -0.973255 0.000000
vt  0.369032 -0.973255 0.000000
vt  0.486422 -0.973255 0.000000
vt  0.016811 -0.973255 0.000000

vn  -0.782674 -0.619478 -0.060561
vn  -0.788943 -0.607362 0.093174
vn  -0.803132 -0.587010 0.101976
vn  -0.796161 -0.601967 -0.061337
vn  -0.777966 -0.551697 -0.300666
vn  -0.802689 -0.542637 -0.247460
vn  -0.780942 -0.575874 -0.241865
vn  -0.771401 -0.571243 -0.280396
vn  -0.791687 -0.605072 0.084382
vn  -0.783473 -0.616909 0.074787
vn  -0.789131 -0.609703 0.074390
vn  -0.774383 -0.632221 -0.025067
vn  -0.784047 -0.618516 0.052042
vn  -0.775888 -0.629266 -0.044971
vn  -0.794683 -0.595999 0.115171
vn  -0.794645 -0.604408 -0.056836
vn  -0.817764 -0.544571 -0.186293
vn  -0.830879 -0.545330 -0.110707
vn  -0.803649 -0.585589 -0.105993
vn  -0.793463 -0.581432 -0.179873
vn  -0.764664 -0.570389 -0.299910
vn  -0.770767 -0.549352 -0.322692
vn  -0.800770 -0.593799 0.078551
vn  -0.803421 -0.589410 0.084329
vn  -0.791061 -0.608565 0.062214
vn  -0.784333 -0.620268 -0.009394
vn  -0.790937 -0.611039 0.032395
vn  -0.843527 -0.533744 -0.059822
vn  -0.819195 -0.571431 -0.048860
vn  -0.797349 -0.601461 0.049787
vn  -0.785408 -0.608253 0.114731
vn  -0.798205 -0.599188 -0.061984
vn  -0.753491 -0.577730 -0.313815
vn  -0.754848 -0.556545 -0.347076
vn  -0.785783 -0.613533 0.078246

g Mesh_0000.rip
usemtl Tex_0000_0.dds
f  1/1/1 2/2/2 3/3/3
f  3/3/3 4/4/4 1/1/1
f  5/5/5 6/6/6 7/7/7
f  7/7/7 8/8/8 5/5/5
f  8/8/8 7/7/7 1/1/1
f  1/1/1 4/4/4 8/8/8
f  9/9/9 2/2/2 10/10/10
f  10/10/10 11/11/11 9/9/9
f  12/12/12 13/13/13 10/10/10
f  10/10/10 14/14/14 12/12/12
f  15/15/15 16/16/16 4/4/4
f  4/4/4 3/3/3 15/15/15
f  17/17/17 18/18/18 19/19/19
f  19/19/19 20/20/20 17/17/17
f  8/8/8 21/21/21 22/22/22
f  22/22/22 5/5/5 8/8/8
f  20/20/20 19/19/19 12/12/12
f  12/12/12 14/14/14 20/20/20
f  4/4/4 16/16/16 21/21/21
f  21/21/21 8/8/8 4/4/4
f  23/23/23 15/15/15 3/3/3
f  3/3/3 24/24/24 23/23/23
f  13/13/13 25/25/25 11/11/11
f  11/11/11 10/10/10 13/13/13
f  26/26/26 27/27/27 13/13/13
f  13/13/13 12/12/12 26/26/26
f  18/18/18 28/28/28 29/29/29
f  29/29/29 19/19/19 18/18/18
f  19/19/19 29/29/29 26/26/26
f  26/26/26 12/12/12 19/19/19
f  27/27/27 30/30/30 25/25/25
f  25/25/25 13/13/13 27/27/27
f  14/14/14 10/10/10 2/2/2
f  2/2/2 1/1/1 14/14/14
f  6/6/6 17/17/17 20/20/20
f  20/20/20 7/7/7 6/6/6
f  7/7/7 20/20/20 14/14/14
f  14/14/14 1/1/1 7/7/7
f  24/24/24 3/3/3 2/2/2
f  2/2/2 9/9/9 24/24/24
f  31/31/31 32/32/32 16/16/16
f  16/16/16 15/15/15 31/31/31
f  21/21/21 33/33/33 34/34/34
f  34/34/34 22/22/22 21/21/21
f  16/16/16 32/32/32 33/33/33
f  33/33/33 21/21/21 16/16/16
f  35/35/35 31/31/31 15/15/15
f  15/15/15 23/23/23 35/35/35

g
