# Noesis .obj export.
#
mtllib unused.mtl
g
v  -128.000000 -220.375809 112.000000
v  128.000000 -220.375793 112.000000
v  128.000000 -256.000000 112.000000
v  -128.000000 -256.000000 112.000000
v  -128.000000 -84.153931 112.000000
v  128.000000 -84.153931 112.000000
v  -128.000000 -53.726555 112.000000
v  128.000000 -53.726555 112.000000
v  -128.000000 -23.299177 112.000000
v  128.000000 -23.299177 112.000000

vt  1.130673 0.101885 0.000000
vt  1.130673 -1.477423 0.000000
vt  1.408988 -1.477423 0.000000
vt  1.408988 0.101885 0.000000
vt  0.066440 0.101885 0.000000
vt  0.066440 -1.477423 0.000000
vt  -0.171274 0.101885 0.000000
vt  -0.171274 -1.477423 0.000000
vt  -0.408988 0.101885 0.000000
vt  -0.408988 -1.477423 0.000000

vn  0.000000 -0.000000 -1.000000
vn  0.000000 -0.000000 -1.000000
vn  0.000000 -0.000000 -1.000000
vn  0.000000 -0.000000 -1.000000
vn  0.000000 -0.000000 -1.000000
vn  0.000000 -0.000000 -1.000000
vn  0.000000 -0.000000 -1.000000
vn  0.000000 -0.000000 -1.000000
vn  0.000000 -0.000000 -1.000000
vn  0.000000 -0.000000 -1.000000

g Mesh_0000.rip
usemtl Tex_0000_0.dds
f  1/1/1 2/2/2 3/3/3
f  3/3/3 4/4/4 1/1/1
f  5/5/5 6/6/6 2/2/2
f  2/2/2 1/1/1 5/5/5
f  7/7/7 8/8/8 6/6/6
f  6/6/6 5/5/5 7/7/7
f  9/9/9 10/10/10 8/8/8
f  8/8/8 7/7/7 9/9/9

g
