# Noesis .obj export.
#
mtllib unused.mtl
g
v  -109.748856 -240.045959 -95.999977
v  -111.000870 -244.000031 -95.999977
v  -111.000870 -244.000031 -109.558907
v  -109.748863 -240.045975 -109.667305
v  -114.000137 -223.996124 -108.903954
v  -114.000137 -223.996124 -95.999977
v  -110.458000 -229.441818 -95.999977
v  -110.458008 -229.441833 -109.643990
v  -110.458000 -214.550415 -95.999977
v  -114.000137 -223.996124 -95.999977
v  -114.000137 -223.996124 -108.903954
v  -110.458008 -214.550415 -109.610367
v  -114.000137 -191.996124 -108.847015
v  -114.000137 -191.996124 -95.999985
v  -110.458000 -201.441803 -95.999977
v  -110.458008 -201.441803 -109.587044
v  -110.458000 -182.550400 -95.999977
v  -114.000137 -191.996124 -95.999985
v  -114.000137 -191.996124 -108.847015
v  -110.458008 -182.550400 -109.553436
v  -114.000137 -159.996094 -108.790077
v  -114.000137 -159.996094 -95.999977
v  -110.458000 -169.441788 -95.999977
v  -110.458008 -169.441788 -109.530106
v  -110.458000 -150.550385 -95.999977
v  -114.000137 -159.996094 -95.999977
v  -114.000137 -159.996094 -108.790077
v  -110.458008 -150.550400 -109.496483
v  -114.000137 -127.996109 -108.733131
v  -114.000137 -127.996101 -95.999985
v  -110.458008 -137.441772 -95.999977
v  -110.458008 -137.441788 -109.473160
v  -110.458000 -118.550400 -95.999977
v  -114.000137 -127.996101 -95.999985
v  -114.000137 -127.996109 -108.733131
v  -110.458008 -118.550415 -109.439545
v  -114.000137 -95.996094 -108.676186
v  -114.000137 -95.996086 -95.999977
v  -110.458000 -105.441788 -95.999977
v  -110.458008 -105.441803 -109.416222
v  -111.059433 -91.297127 -95.999969
v  -114.000137 -95.996086 -95.999977
v  -114.000137 -95.996094 -108.676186
v  -111.059433 -91.297134 -109.064384
v  -109.748817 -240.045837 96.000023
v  -111.000862 -244.000000 96.000023
v  -111.000862 -244.000000 0.000204
v  -109.748840 -240.045898 0.000151
v  -110.457970 -214.550308 96.000023
v  -114.000107 -223.996002 96.000023
v  -114.000122 -223.996078 -0.000060
v  -110.457985 -214.550369 -0.000045
v  -110.457977 -182.550323 96.000023
v  -114.000107 -191.995987 96.000023
v  -114.000122 -191.996063 -0.000036
v  -110.457985 -182.550354 -0.000038
v  -110.457970 -150.550308 96.000023
v  -114.000107 -159.995987 96.000023
v  -114.000122 -159.996048 -0.000011
v  -110.457985 -150.550354 -0.000014
v  -110.457970 -118.550278 96.000023
v  -114.000107 -127.995972 96.000023
v  -114.000122 -127.996033 -0.000017
v  -110.457985 -118.550339 -0.000029
v  -108.000107 -79.995903 96.000015
v  -108.972046 -85.795250 96.000023
v  -108.972061 -85.795296 -0.000006
v  -108.000122 -79.995934 0.000003
v  -114.000107 -95.995972 108.675758
v  -114.000107 -95.995979 96.000023
v  -111.059410 -91.297035 96.000031
v  -111.059410 -91.297028 109.063957
v  -108.972069 -85.795334 -95.999977
v  -108.972076 -85.795341 -109.476608
v  -108.000145 -79.995979 -109.872787
v  -108.000130 -79.995972 -95.999977
v  -110.457970 -229.441696 96.000023
v  -114.000107 -223.996002 96.000023
v  -114.000107 -223.996002 108.903526
v  -110.457962 -229.441696 109.643555
v  -110.457970 -201.441696 96.000023
v  -114.000107 -191.995987 96.000023
v  -114.000107 -191.995987 108.846581
v  -110.457962 -201.441681 109.586617
v  -110.457970 -169.441711 96.000023
v  -114.000107 -159.995987 96.000023
v  -114.000107 -159.995987 108.789642
v  -110.457962 -169.441696 109.529678
v  -110.457970 -137.441696 96.000023
v  -114.000107 -127.995972 96.000023
v  -114.000107 -127.995964 108.732704
v  -110.457962 -137.441681 109.472740
v  -110.457970 -105.441666 96.000023
v  -114.000107 -95.995979 96.000023
v  -114.000107 -95.995972 108.675758
v  -110.457962 -105.441658 109.415787
v  -114.000122 -223.996078 -0.000060
v  -110.457985 -229.441772 -0.000077
v  -114.000122 -191.996063 -0.000036
v  -110.457985 -201.441757 -0.000035
v  -114.000122 -159.996048 -0.000011
v  -110.457985 -169.441742 -0.000028
v  -114.000122 -127.996033 -0.000017
v  -110.457985 -137.441742 -0.000016
v  -114.000122 -95.996040 -0.000023
v  -110.457985 -105.441727 -0.000031
v  -111.059425 -91.297089 -0.000015
v  -114.000122 -95.996040 -0.000023
v  -109.748810 -240.045837 109.666847
v  -111.000854 -244.000000 109.558441
v  -110.457962 -214.550293 109.609947
v  -114.000107 -223.996002 108.903526
v  -110.457962 -182.550308 109.552994
v  -114.000107 -191.995987 108.846581
v  -110.457962 -150.550293 109.496056
v  -114.000107 -159.995987 108.789642
v  -110.457962 -118.550270 109.439117
v  -114.000107 -127.995964 108.732704
v  -108.000099 -79.995895 109.872353
v  -108.972038 -85.795242 109.476166
v  -109.418625 -235.996124 -0.000035
v  -109.418610 -235.996124 96.000023
v  -109.418739 -207.996048 -0.000036
v  -109.418724 -207.996048 96.000023
v  -109.418739 -175.996063 -0.000037
v  -109.418732 -175.996063 96.000023
v  -109.418739 -143.996048 -0.000015
v  -109.418724 -143.996048 96.000023
v  -109.418739 -111.996048 -0.000034
v  -109.418724 -111.996048 96.000023
v  -109.418648 -235.996124 -109.942421
v  -109.418640 -235.996124 -95.999977
v  -109.418762 -207.996048 -109.885468
v  -109.418755 -207.996048 -95.999977
v  -109.418762 -175.996063 -109.828537
v  -109.418755 -175.996063 -95.999977
v  -109.418762 -143.996048 -109.771584
v  -109.418762 -143.996048 -95.999977
v  -109.418762 -111.996048 -109.714645
v  -109.418755 -111.996048 -95.999977
v  -109.418602 -235.996124 109.941971
v  -109.418716 -207.996048 109.885048
v  -109.418716 -175.996063 109.828102
v  -109.418716 -143.996048 109.771164
v  -109.418716 -111.996048 109.714226

vt  -0.875000 -0.046601 0.000000
vt  -0.875000 -0.031235 0.000000
vt  -0.927965 -0.031235 0.000000
vt  -0.928388 -0.046601 0.000000
vt  -0.925406 -0.125000 0.000000
vt  -0.875000 -0.125000 0.000000
vt  -0.875000 -0.088103 0.000000
vt  -0.928297 -0.088103 0.000000
vt  -0.875000 -0.161897 0.000000
vt  -0.875000 -0.125000 0.000000
vt  -0.925406 -0.125000 0.000000
vt  -0.928166 -0.161897 0.000000
vt  -0.925184 -0.250000 0.000000
vt  -0.875000 -0.250000 0.000000
vt  -0.875000 -0.213103 0.000000
vt  -0.928075 -0.213103 0.000000
vt  -0.875000 -0.286897 0.000000
vt  -0.875000 -0.250000 0.000000
vt  -0.925184 -0.250000 0.000000
vt  -0.927943 -0.286897 0.000000
vt  -0.924962 -0.375000 0.000000
vt  -0.875000 -0.375000 0.000000
vt  -0.875000 -0.338103 0.000000
vt  -0.927852 -0.338103 0.000000
vt  -0.875000 -0.411897 0.000000
vt  -0.875000 -0.375000 0.000000
vt  -0.924962 -0.375000 0.000000
vt  -0.927721 -0.411897 0.000000
vt  -0.924739 -0.500000 0.000000
vt  -0.875000 -0.500000 0.000000
vt  -0.875000 -0.463103 0.000000
vt  -0.927630 -0.463103 0.000000
vt  -0.875000 -0.536897 0.000000
vt  -0.875000 -0.500000 0.000000
vt  -0.924739 -0.500000 0.000000
vt  -0.927499 -0.536897 0.000000
vt  -0.924517 -0.625000 0.000000
vt  -0.875000 -0.625000 0.000000
vt  -0.875000 -0.588103 0.000000
vt  -0.927407 -0.588103 0.000000
vt  -0.875000 -0.645277 0.000000
vt  -0.875000 -0.625000 0.000000
vt  -0.924517 -0.625000 0.000000
vt  -0.926033 -0.645277 0.000000
vt  -0.124999 -0.046601 0.000000
vt  -0.124999 -0.031234 0.000000
vt  -0.500000 -0.031235 0.000000
vt  -0.500000 -0.046601 0.000000
vt  -0.124999 -0.161897 0.000000
vt  -0.124999 -0.125000 0.000000
vt  -0.500000 -0.125000 0.000000
vt  -0.500000 -0.161897 0.000000
vt  -0.124999 -0.286897 0.000000
vt  -0.124999 -0.250000 0.000000
vt  -0.500000 -0.250000 0.000000
vt  -0.500000 -0.286897 0.000000
vt  -0.124999 -0.411897 0.000000
vt  -0.124999 -0.375000 0.000000
vt  -0.500000 -0.375000 0.000000
vt  -0.500000 -0.411897 0.000000
vt  -0.124999 -0.536897 0.000000
vt  -0.124999 -0.500000 0.000000
vt  -0.500000 -0.500000 0.000000
vt  -0.500000 -0.536897 0.000000
vt  -0.124999 -0.687500 0.000000
vt  -0.124999 -0.666807 0.000000
vt  -0.500000 -0.666807 0.000000
vt  -0.500000 -0.687500 0.000000
vt  -0.075485 -0.625000 0.000000
vt  -0.124999 -0.625000 0.000000
vt  -0.124999 -0.645277 0.000000
vt  -0.073968 -0.645277 0.000000
vt  -0.875000 -0.666807 0.000000
vt  -0.927644 -0.666807 0.000000
vt  -0.929191 -0.687500 0.000000
vt  -0.875000 -0.687500 0.000000
vt  -0.124999 -0.088103 0.000000
vt  -0.124999 -0.125000 0.000000
vt  -0.074595 -0.125000 0.000000
vt  -0.071704 -0.088103 0.000000
vt  -0.124999 -0.213103 0.000000
vt  -0.124999 -0.250000 0.000000
vt  -0.074817 -0.250000 0.000000
vt  -0.071927 -0.213103 0.000000
vt  -0.124999 -0.338103 0.000000
vt  -0.124999 -0.375000 0.000000
vt  -0.075040 -0.375000 0.000000
vt  -0.072149 -0.338103 0.000000
vt  -0.124999 -0.463103 0.000000
vt  -0.124999 -0.500000 0.000000
vt  -0.075262 -0.500000 0.000000
vt  -0.072372 -0.463103 0.000000
vt  -0.124999 -0.588103 0.000000
vt  -0.124999 -0.625000 0.000000
vt  -0.075485 -0.625000 0.000000
vt  -0.072594 -0.588103 0.000000
vt  -0.500000 -0.125000 0.000000
vt  -0.500000 -0.088103 0.000000
vt  -0.500000 -0.250000 0.000000
vt  -0.500000 -0.213103 0.000000
vt  -0.500000 -0.375000 0.000000
vt  -0.500000 -0.338103 0.000000
vt  -0.500000 -0.500000 0.000000
vt  -0.500000 -0.463103 0.000000
vt  -0.500000 -0.625000 0.000000
vt  -0.500000 -0.588103 0.000000
vt  -0.500000 -0.645277 0.000000
vt  -0.500000 -0.625000 0.000000
vt  -0.071613 -0.046601 0.000000
vt  -0.072036 -0.031234 0.000000
vt  -0.071836 -0.161897 0.000000
vt  -0.074595 -0.125000 0.000000
vt  -0.072058 -0.286897 0.000000
vt  -0.074817 -0.250000 0.000000
vt  -0.072281 -0.411897 0.000000
vt  -0.075040 -0.375000 0.000000
vt  -0.072503 -0.536897 0.000000
vt  -0.075262 -0.500000 0.000000
vt  -0.070811 -0.687500 0.000000
vt  -0.072358 -0.666807 0.000000
vt  -0.500000 -0.062500 0.000000
vt  -0.124999 -0.062500 0.000000
vt  -0.500000 -0.187500 0.000000
vt  -0.124999 -0.187500 0.000000
vt  -0.500000 -0.312500 0.000000
vt  -0.124999 -0.312500 0.000000
vt  -0.500000 -0.437500 0.000000
vt  -0.124999 -0.437500 0.000000
vt  -0.500000 -0.562500 0.000000
vt  -0.124999 -0.562500 0.000000
vt  -0.929463 -0.062500 0.000000
vt  -0.875000 -0.062500 0.000000
vt  -0.929240 -0.187500 0.000000
vt  -0.875000 -0.187500 0.000000
vt  -0.929018 -0.312500 0.000000
vt  -0.875000 -0.312500 0.000000
vt  -0.928796 -0.437500 0.000000
vt  -0.875000 -0.437500 0.000000
vt  -0.928573 -0.562500 0.000000
vt  -0.875000 -0.562500 0.000000
vt  -0.070538 -0.062500 0.000000
vt  -0.070761 -0.187500 0.000000
vt  -0.070983 -0.312500 0.000000
vt  -0.071206 -0.437500 0.000000
vt  -0.071428 -0.562500 0.000000

vn  0.981240 -0.192790 -0.000000
vn  0.953350 -0.301868 0.000000
vn  0.953350 -0.301867 -0.000000
vn  0.981877 -0.189520 -0.000000
vn  0.838273 0.545251 -0.000001
vn  0.838272 0.545252 -0.000000
vn  0.933416 0.358797 -0.000000
vn  0.937295 0.348537 -0.000001
vn  0.966900 -0.255156 -0.000000
vn  0.936329 -0.351123 0.000000
vn  0.936329 -0.351123 -0.000000
vn  0.967816 -0.251658 -0.000001
vn  0.936329 0.351124 -0.000000
vn  0.936329 0.351124 -0.000000
vn  0.966899 0.255158 -0.000000
vn  0.967871 0.251446 -0.000001
vn  0.966900 -0.255156 -0.000000
vn  0.936329 -0.351123 0.000000
vn  0.936330 -0.351122 -0.000000
vn  0.967816 -0.251658 -0.000001
vn  0.936329 0.351123 -0.000000
vn  0.936329 0.351124 -0.000000
vn  0.966899 0.255158 -0.000000
vn  0.967872 0.251445 -0.000001
vn  0.966900 -0.255156 -0.000000
vn  0.936329 -0.351123 -0.000000
vn  0.936329 -0.351123 -0.000000
vn  0.967816 -0.251659 -0.000000
vn  0.936329 0.351124 -0.000000
vn  0.936329 0.351124 -0.000000
vn  0.966900 0.255158 -0.000000
vn  0.967871 0.251446 -0.000000
vn  0.966900 -0.255157 -0.000000
vn  0.936329 -0.351123 0.000000
vn  0.936329 -0.351123 0.000000
vn  0.967816 -0.251659 -0.000000
vn  0.936329 0.351123 -0.000001
vn  0.936329 0.351123 -0.000000
vn  0.966899 0.255158 -0.000000
vn  0.967872 0.251445 -0.000001
vn  0.895651 -0.444758 0.000000
vn  0.847686 -0.530499 0.000000
vn  0.847686 -0.530499 0.000000
vn  0.897594 -0.440822 0.000000
vn  0.981240 -0.192790 -0.000000
vn  0.953350 -0.301868 -0.000000
vn  0.953350 -0.301868 -0.000000
vn  0.981240 -0.192790 -0.000000
vn  0.966899 -0.255158 -0.000000
vn  0.936329 -0.351124 0.000000
vn  0.936329 -0.351123 0.000000
vn  0.966900 -0.255157 -0.000000
vn  0.966899 -0.255158 -0.000000
vn  0.936329 -0.351124 0.000000
vn  0.936329 -0.351123 0.000000
vn  0.966900 -0.255157 -0.000000
vn  0.966899 -0.255158 -0.000000
vn  0.936329 -0.351124 0.000000
vn  0.936329 -0.351124 0.000000
vn  0.966900 -0.255157 -0.000000
vn  0.966899 -0.255158 -0.000000
vn  0.936329 -0.351124 0.000000
vn  0.936329 -0.351124 0.000000
vn  0.966900 -0.255158 -0.000000
vn  0.986245 -0.165289 -0.000000
vn  0.965266 -0.261268 -0.000000
vn  0.965266 -0.261268 -0.000000
vn  0.986245 -0.165289 -0.000000
vn  0.847685 -0.530499 0.000000
vn  0.847685 -0.530499 0.000000
vn  0.895650 -0.444759 0.000000
vn  0.897594 -0.440824 0.000000
vn  0.965266 -0.261268 -0.000000
vn  0.966384 -0.257104 -0.000000
vn  0.986245 -0.165288 -0.000001
vn  0.986245 -0.165289 -0.000001
vn  0.933416 0.358795 -0.000000
vn  0.838272 0.545252 -0.000000
vn  0.838272 0.545253 -0.000000
vn  0.937295 0.348537 -0.000001
vn  0.966900 0.255157 -0.000000
vn  0.936329 0.351123 -0.000000
vn  0.936329 0.351124 -0.000001
vn  0.967872 0.251445 -0.000001
vn  0.966900 0.255156 -0.000000
vn  0.936329 0.351123 -0.000000
vn  0.936329 0.351123 -0.000001
vn  0.967872 0.251445 -0.000001
vn  0.966900 0.255156 -0.000000
vn  0.936329 0.351123 -0.000000
vn  0.936329 0.351123 -0.000001
vn  0.967872 0.251445 -0.000001
vn  0.966900 0.255157 -0.000000
vn  0.936329 0.351124 -0.000000
vn  0.936329 0.351124 -0.000001
vn  0.967872 0.251445 -0.000001
vn  0.838272 0.545252 -0.000000
vn  0.933416 0.358796 -0.000000
vn  0.936329 0.351124 -0.000000
vn  0.966900 0.255158 -0.000000
vn  0.936329 0.351124 -0.000000
vn  0.966900 0.255157 -0.000000
vn  0.936329 0.351123 -0.000000
vn  0.966900 0.255157 -0.000000
vn  0.936329 0.351124 -0.000000
vn  0.966900 0.255157 -0.000000
vn  0.895651 -0.444758 0.000000
vn  0.847686 -0.530499 0.000000
vn  0.981877 -0.189520 -0.000001
vn  0.953350 -0.301868 -0.000001
vn  0.967816 -0.251660 -0.000000
vn  0.936329 -0.351124 -0.000000
vn  0.967816 -0.251661 -0.000001
vn  0.936329 -0.351124 -0.000000
vn  0.967816 -0.251660 -0.000000
vn  0.936329 -0.351124 -0.000000
vn  0.967816 -0.251661 -0.000000
vn  0.936329 -0.351124 -0.000000
vn  0.986245 -0.165289 -0.000000
vn  0.966383 -0.257106 -0.000000
vn  0.999280 0.037944 -0.000000
vn  0.999280 0.037944 -0.000000
vn  1.000000 0.000000 -0.000000
vn  1.000000 -0.000001 -0.000000
vn  1.000000 -0.000000 -0.000000
vn  1.000000 -0.000002 -0.000001
vn  1.000000 0.000000 -0.000000
vn  1.000000 -0.000001 -0.000000
vn  1.000000 -0.000000 -0.000000
vn  1.000000 -0.000002 -0.000000
vn  0.999245 0.038842 -0.000001
vn  0.999280 0.037945 -0.000000
vn  1.000000 -0.000181 -0.000001
vn  1.000000 0.000001 -0.000000
vn  1.000000 -0.000181 -0.000001
vn  1.000000 0.000001 -0.000000
vn  1.000000 -0.000181 -0.000000
vn  1.000000 0.000001 -0.000000
vn  1.000000 -0.000181 -0.000001
vn  1.000000 0.000001 -0.000000
vn  0.999245 0.038840 -0.000001
vn  1.000000 -0.000183 -0.000000
vn  1.000000 -0.000183 -0.000001
vn  1.000000 -0.000183 -0.000000
vn  1.000000 -0.000184 -0.000001

g Mesh_0003.rip
usemtl Tex_0006_0.dds
f  1/1/1 2/2/2 3/3/3
f  3/3/3 4/4/4 1/1/1
f  5/5/5 6/6/6 7/7/7
f  7/7/7 8/8/8 5/5/5
f  9/9/9 10/10/10 11/11/11
f  11/11/11 12/12/12 9/9/9
f  13/13/13 14/14/14 15/15/15
f  15/15/15 16/16/16 13/13/13
f  17/17/17 18/18/18 19/19/19
f  19/19/19 20/20/20 17/17/17
f  21/21/21 22/22/22 23/23/23
f  23/23/23 24/24/24 21/21/21
f  25/25/25 26/26/26 27/27/27
f  27/27/27 28/28/28 25/25/25
f  29/29/29 30/30/30 31/31/31
f  31/31/31 32/32/32 29/29/29
f  33/33/33 34/34/34 35/35/35
f  35/35/35 36/36/36 33/33/33
f  37/37/37 38/38/38 39/39/39
f  39/39/39 40/40/40 37/37/37
f  41/41/41 42/42/42 43/43/43
f  43/43/43 44/44/44 41/41/41
f  45/45/45 46/46/46 47/47/47
f  47/47/47 48/48/48 45/45/45
f  49/49/49 50/50/50 51/51/51
f  51/51/51 52/52/52 49/49/49
f  53/53/53 54/54/54 55/55/55
f  55/55/55 56/56/56 53/53/53
f  57/57/57 58/58/58 59/59/59
f  59/59/59 60/60/60 57/57/57
f  61/61/61 62/62/62 63/63/63
f  63/63/63 64/64/64 61/61/61
f  65/65/65 66/66/66 67/67/67
f  67/67/67 68/68/68 65/65/65
f  69/69/69 70/70/70 71/71/71
f  71/71/71 72/72/72 69/69/69
f  73/73/73 74/74/74 75/75/75
f  75/75/75 76/76/76 73/73/73
f  77/77/77 78/78/78 79/79/79
f  79/79/79 80/80/80 77/77/77
f  81/81/81 82/82/82 83/83/83
f  83/83/83 84/84/84 81/81/81
f  85/85/85 86/86/86 87/87/87
f  87/87/87 88/88/88 85/85/85
f  89/89/89 90/90/90 91/91/91
f  91/91/91 92/92/92 89/89/89
f  93/93/93 94/94/94 95/95/95
f  95/95/95 96/96/96 93/93/93
f  48/48/48 47/47/47 2/2/2
f  2/2/2 1/1/1 48/48/48
f  97/97/97 98/98/98 7/7/7
f  7/7/7 6/6/6 97/97/97
f  52/52/52 51/51/51 10/10/10
f  10/10/10 9/9/9 52/52/52
f  99/99/99 100/100/100 15/15/15
f  15/15/15 14/14/14 99/99/99
f  56/56/56 55/55/55 18/18/18
f  18/18/18 17/17/17 56/56/56
f  101/101/101 102/102/102 23/23/23
f  23/23/23 22/22/22 101/101/101
f  60/60/60 59/59/59 26/26/26
f  26/26/26 25/25/25 60/60/60
f  103/103/103 104/104/104 31/31/31
f  31/31/31 30/30/30 103/103/103
f  64/64/64 63/63/63 34/34/34
f  34/34/34 33/33/33 64/64/64
f  105/105/105 106/106/106 39/39/39
f  39/39/39 38/38/38 105/105/105
f  107/107/107 108/108/108 42/42/42
f  42/42/42 41/41/41 107/107/107
f  68/68/68 67/67/67 73/73/73
f  73/73/73 76/76/76 68/68/68
f  45/45/45 109/109/109 110/110/110
f  110/110/110 46/46/46 45/45/45
f  49/49/49 111/111/111 112/112/112
f  112/112/112 50/50/50 49/49/49
f  53/53/53 113/113/113 114/114/114
f  114/114/114 54/54/54 53/53/53
f  57/57/57 115/115/115 116/116/116
f  116/116/116 58/58/58 57/57/57
f  61/61/61 117/117/117 118/118/118
f  118/118/118 62/62/62 61/61/61
f  66/66/66 65/65/65 119/119/119
f  119/119/119 120/120/120 66/66/66
f  108/108/108 107/107/107 71/71/71
f  71/71/71 70/70/70 108/108/108
f  98/98/98 97/97/97 78/78/78
f  78/78/78 77/77/77 98/98/98
f  100/100/100 99/99/99 82/82/82
f  82/82/82 81/81/81 100/100/100
f  102/102/102 101/101/101 86/86/86
f  86/86/86 85/85/85 102/102/102
f  104/104/104 103/103/103 90/90/90
f  90/90/90 89/89/89 104/104/104
f  106/106/106 105/105/105 94/94/94
f  94/94/94 93/93/93 106/106/106
f  48/48/48 121/121/121 122/122/122
f  122/122/122 45/45/45 48/48/48
f  52/52/52 123/123/123 124/124/124
f  124/124/124 49/49/49 52/52/52
f  56/56/56 125/125/125 126/126/126
f  126/126/126 53/53/53 56/56/56
f  60/60/60 127/127/127 128/128/128
f  128/128/128 57/57/57 60/60/60
f  64/64/64 129/129/129 130/130/130
f  130/130/130 61/61/61 64/64/64
f  4/4/4 131/131/131 132/132/132
f  132/132/132 1/1/1 4/4/4
f  12/12/12 133/133/133 134/134/134
f  134/134/134 9/9/9 12/12/12
f  20/20/20 135/135/135 136/136/136
f  136/136/136 17/17/17 20/20/20
f  28/28/28 137/137/137 138/138/138
f  138/138/138 25/25/25 28/28/28
f  36/36/36 139/139/139 140/140/140
f  140/140/140 33/33/33 36/36/36
f  1/1/1 132/132/132 121/121/121
f  121/121/121 48/48/48 1/1/1
f  9/9/9 134/134/134 123/123/123
f  123/123/123 52/52/52 9/9/9
f  17/17/17 136/136/136 125/125/125
f  125/125/125 56/56/56 17/17/17
f  25/25/25 138/138/138 127/127/127
f  127/127/127 60/60/60 25/25/25
f  33/33/33 140/140/140 129/129/129
f  129/129/129 64/64/64 33/33/33
f  122/122/122 141/141/141 109/109/109
f  109/109/109 45/45/45 122/122/122
f  49/49/49 124/124/124 142/142/142
f  142/142/142 111/111/111 49/49/49
f  53/53/53 126/126/126 143/143/143
f  143/143/143 113/113/113 53/53/53
f  57/57/57 128/128/128 144/144/144
f  144/144/144 115/115/115 57/57/57
f  61/61/61 130/130/130 145/145/145
f  145/145/145 117/117/117 61/61/61
f  121/121/121 98/98/98 77/77/77
f  77/77/77 122/122/122 121/121/121
f  123/123/123 100/100/100 81/81/81
f  81/81/81 124/124/124 123/123/123
f  125/125/125 102/102/102 85/85/85
f  85/85/85 126/126/126 125/125/125
f  127/127/127 104/104/104 89/89/89
f  89/89/89 128/128/128 127/127/127
f  129/129/129 106/106/106 93/93/93
f  93/93/93 130/130/130 129/129/129
f  131/131/131 8/8/8 7/7/7
f  7/7/7 132/132/132 131/131/131
f  133/133/133 16/16/16 15/15/15
f  15/15/15 134/134/134 133/133/133
f  135/135/135 24/24/24 23/23/23
f  23/23/23 136/136/136 135/135/135
f  137/137/137 32/32/32 31/31/31
f  31/31/31 138/138/138 137/137/137
f  139/139/139 40/40/40 39/39/39
f  39/39/39 140/140/140 139/139/139
f  132/132/132 7/7/7 98/98/98
f  98/98/98 121/121/121 132/132/132
f  134/134/134 15/15/15 100/100/100
f  100/100/100 123/123/123 134/134/134
f  136/136/136 23/23/23 102/102/102
f  102/102/102 125/125/125 136/136/136
f  138/138/138 31/31/31 104/104/104
f  104/104/104 127/127/127 138/138/138
f  140/140/140 39/39/39 106/106/106
f  106/106/106 129/129/129 140/140/140
f  122/122/122 77/77/77 80/80/80
f  80/80/80 141/141/141 122/122/122
f  124/124/124 81/81/81 84/84/84
f  84/84/84 142/142/142 124/124/124
f  126/126/126 85/85/85 88/88/88
f  88/88/88 143/143/143 126/126/126
f  128/128/128 89/89/89 92/92/92
f  92/92/92 144/144/144 128/128/128
f  130/130/130 93/93/93 96/96/96
f  96/96/96 145/145/145 130/130/130
f  44/44/44 74/74/74 73/73/73
f  73/73/73 41/41/41 44/44/44
f  120/120/120 72/72/72 71/71/71
f  71/71/71 66/66/66 120/120/120
f  41/41/41 73/73/73 67/67/67
f  67/67/67 107/107/107 41/41/41
f  66/66/66 71/71/71 107/107/107
f  107/107/107 67/67/67 66/66/66

g
